<?xml version="1.0" encoding="utf-8"?>
<svg version="1.1" id="Layer_1" xmlns="http://www.w3.org/2000/svg" xmlns:xlink="http://www.w3.org/1999/xlink" x="0px" y="0px"
	 viewBox="0 0 1500 1500" style="enable-background:new 0 0 1500 1500;" xml:space="preserve">
<style type="text/css">
	.st0{fill:none;}
	.st1{fill-rule:evenodd;clip-rule:evenodd;fill:#968577;}
	.st2{opacity:0.75;fill-rule:evenodd;clip-rule:evenodd;fill:#92D4F4;}
	.st3{fill-rule:evenodd;clip-rule:evenodd;fill:#E3C8B4;}
	.st4{fill-rule:evenodd;clip-rule:evenodd;fill:#FFF6F0;}
	.st5{fill-rule:evenodd;clip-rule:evenodd;fill:#7B6141;}
	.st6{fill-rule:evenodd;clip-rule:evenodd;fill:#525252;}
	.st7{fill-rule:evenodd;clip-rule:evenodd;fill:#6D6D6D;}
	.st8{fill-rule:evenodd;clip-rule:evenodd;fill:#A48156;}
	.st9{fill-rule:evenodd;clip-rule:evenodd;fill:#DAB484;}
	.st10{fill-rule:evenodd;clip-rule:evenodd;fill:#B29783;}
	.st11{fill-rule:evenodd;clip-rule:evenodd;fill:#7D6051;}
	.st12{fill-rule:evenodd;clip-rule:evenodd;fill:#926E5D;}
	.st13{fill:#E5E5E5;}
	.st14{fill:#999999;}
	.st15{fill-rule:evenodd;clip-rule:evenodd;fill:#999999;}
	.st16{fill-rule:evenodd;clip-rule:evenodd;fill:#888888;}
	.st17{fill-rule:evenodd;clip-rule:evenodd;fill:#BFA38E;}
	.st18{fill-rule:evenodd;clip-rule:evenodd;fill:#656565;}
	.st19{fill-rule:evenodd;clip-rule:evenodd;fill:#A3A3A3;}
	.st20{fill-rule:evenodd;clip-rule:evenodd;fill:#E5E5E5;}
	.st21{fill-rule:evenodd;clip-rule:evenodd;fill:#CCCCCC;}
	.st22{fill-rule:evenodd;clip-rule:evenodd;fill:#60544A;}
	.st23{fill:none;stroke:#000000;stroke-width:1.22;stroke-linecap:round;stroke-linejoin:round;}
	.st24{fill:#656565;}
</style>
<rect id="Plan5" x="-150" y="92.8" class="st0" width="1999.9" height="1014.2"/>
<path class="st1" d="M494,778.3l-59.6-30v4.1l59.6,30V778.3z"/>
<path class="st2" d="M518.5,732l-17.9-9v50.5l17.9,9V732z"/>
<path class="st2" d="M498.3,721.8l-17.9-9v50.5l17.9,9V721.8z"/>
<path class="st2" d="M421.2,682.9l-17.9-9v50.5l17.9,9V682.9L421.2,682.9z"/>
<path class="st3" d="M835.6,448L324.8,637.4v8.1l510.9-189.4V448z"/>
<path class="st3" d="M1019.8,498.3l-48.6,18v8.1l48.6-18V498.3L1019.8,498.3z"/>
<path class="st3" d="M971.2,516.3L835.6,448v8.1l135.5,68.3V516.3z"/>
<path class="st3" d="M1204,591.2l-184.2-92.9v8.1l184.2,92.9V591.2z"/>
<g>
	
		<image style="overflow:visible;enable-background:new    ;" width="5933" height="2626" id="_Image1" xlink:href="BCE8889C.png"  transform="matrix(0.2902 0 0 0.2902 -15.0202 249.78)">
	</image>
	<path class="st4" d="M790.7,367.4L18.6,653.6l600.9,295.3l698.9-259l39.3,19.8l329.8-122.3l-39.3-19.8l-172,63.8L751.1,265.7
		l-93.4,34.6L790.7,367.4L790.7,367.4z M424.5,743.3l-63.8,23.6l69.5,35l63.8-23.6L424.5,743.3z M971.1,516.3L835.6,448L324.8,637.4
		l50.2,25.3l-56.5,20.9l219.4,110.6l56.5-20.9l50.2,25.3L1204,591.2l-184.2-92.9L971.1,516.3L971.1,516.3L971.1,516.3z"/>
</g>
<g id="fence">
	<path class="st5" d="M1206.2,563.9l-8,3v1.7l8-3V563.9z"/>
	<path class="st6" d="M1196.4,566.3l-2.5-1.3v29.2l2.5,1.3V566.3z"/>
	<path class="st7" d="M1026.6,480.7l-2.5-1.3v29.2l2.5,1.3V480.7z"/>
	<path class="st7" d="M1072,503.6l-2.5-1.3v29.2l2.5,1.3V503.6L1072,503.6z"/>
	<path class="st7" d="M1117.3,526.5l-2.5-1.3v29.2l2.5,1.3V526.5z"/>
	<path class="st7" d="M1163.1,549.6l-2.5-1.3v29.2l2.5,1.3V549.6z"/>
	<path class="st7" d="M1049.1,492l-2.5-1.3v29.2l2.5,1.3V492L1049.1,492z"/>
	<path class="st7" d="M1094.5,515l-2.5-1.3v29.2l2.5,1.3V515z"/>
	<path class="st7" d="M1139.8,537.8l-2.5-1.3v29.2l2.5,1.3V537.8z"/>
	<path class="st6" d="M1185.6,560.9l-2.5-1.3v29.2l2.5,1.3V560.9z"/>
	<path class="st7" d="M1034,484.4l-2.5-1.3v29.2l2.5,1.3V484.4L1034,484.4z"/>
	<path class="st7" d="M1079.4,507.3l-2.5-1.3v29.2l2.5,1.3V507.3z"/>
	<path class="st7" d="M1124.7,530.2l-2.5-1.3v29.2l2.5,1.3V530.2z"/>
	<path class="st6" d="M1170.5,553.3l-2.5-1.3v29.2l2.5,1.3V553.3z"/>
	<path class="st7" d="M1056.4,495.8l-2.5-1.3v29.2l2.5,1.3V495.8z"/>
	<path class="st7" d="M1101.8,518.7l-2.5-1.3v29.2l2.5,1.3V518.7z"/>
	<path class="st7" d="M1147.2,541.5l-2.5-1.3v29.2l2.5,1.3V541.5z"/>
	<path class="st7" d="M1041.7,488.3l-2.5-1.3v29.2l2.5,1.3V488.3L1041.7,488.3z"/>
	<path class="st7" d="M1087.1,511.2l-2.5-1.3v29.2l2.5,1.3V511.2z"/>
	<path class="st7" d="M1132.4,534.1l-2.5-1.3V562l2.5,1.3V534.1z"/>
	<path class="st6" d="M1178.2,557.2l-2.5-1.3v29.2l2.5,1.3V557.2z"/>
	<path class="st7" d="M1064.2,499.7l-2.5-1.3v29.2l2.5,1.3V499.7z"/>
	<path class="st7" d="M1109.6,522.6l-2.5-1.3v29.2l2.5,1.3V522.6z"/>
	<path class="st7" d="M1154.9,545.4l-2.5-1.3v29.2l2.5,1.3V545.4z"/>
	<path class="st8" d="M1191.1,563.3l-170.3-85.9v1.7l170.3,85.9L1191.1,563.3L1191.1,563.3z"/>
	<path class="st9" d="M1021.6,470.9l-8,3l184.6,93.1l8-3L1021.6,470.9L1021.6,470.9L1021.6,470.9z"/>
</g>
<g id="fence1">
	<path class="st5" d="M968.6,496.8l-7.2-3.6v1.7l7.2,3.6V496.8z"/>
	<path class="st7" d="M1014.1,481l-3.4,1.3v27.5l3.4-1.3V481z"/>
	<path class="st7" d="M974.8,495.6l-3.4,1.3v27.5l3.4-1.3V495.6L974.8,495.6z"/>
	<path class="st7" d="M984.8,491.9l-3.4,1.3v27.5l3.4-1.3V491.9z"/>
	<path class="st7" d="M994.5,488.3l-3.4,1.3v27.5l3.4-1.3V488.3z"/>
	<path class="st7" d="M1004.4,484.6l-3.4,1.3v27.5l3.4-1.3V484.6L1004.4,484.6z"/>
	<path class="st8" d="M1020.8,477.4l-52.2,19.4v1.7l52.2-19.4V477.4z"/>
	<path class="st9" d="M1021.6,470.9l-60.2,22.3l7.2,3.6l60.2-22.3L1021.6,470.9z"/>
</g>
<path class="st3" d="M790.2,315.9l-132.5-66.8v51.6l132.5,66.8V315.9z"/>
<path class="st3" d="M1330.4,501.6L751.1,209.5v56.2l579.3,292.1V501.6L1330.4,501.6z"/>
<path class="st4" d="M1502.4,494.1l-172,63.8l152,76.6l172-63.8L1502.4,494.1L1502.4,494.1z"/>
<path class="st10" d="M790.2,315.9L18.6,602v51.6l771.7-286V315.9L790.2,315.9z"/>
<g id="door">
	<path class="st11" d="M612.7,395.4l-0.8-0.4v38.5l0.8,0.4V395.4z"/>
	<path class="st12" d="M633.7,387.6l-21,7.8v38.5l21-7.8V387.6z"/>
	<path class="st11" d="M632.9,387.2l-21,7.8l0.8,0.4l21-7.8L632.9,387.2L632.9,387.2z"/>
	<path class="st11" d="M629,392.6l-12.2,4.5v6.6l12.2-4.5V392.6z M628.2,394l-10.5,3.9v4.4l10.5-3.9V394z"/>
	<path class="st11" d="M629,400.8l-12.2,4.5v6.6l12.2-4.5V400.8z M628.2,402.2l-10.5,3.9v4.4l10.5-3.9V402.2z"/>
	<path class="st11" d="M629,410.6l-12.2,4.5v6.6l12.2-4.5V410.6z M628.2,412l-10.5,3.9v4.4l10.5-3.9V412z"/>
	<path class="st11" d="M629,419.4l-12.2,4.5v6.6L629,426V419.4z M628.2,420.8l-10.5,3.9v4.4l10.5-3.9V420.8z"/>
	<path class="st7" d="M614.8,411.8l-0.8,0.3v4.1l0.8-0.3V411.8z"/>
	<path class="st7" d="M614.6,413.1v0.5l1.6-0.6v-0.5L614.6,413.1z"/>
</g>
<g id="door1">
	<path class="st11" d="M175,557.9l-0.8-0.4V596l0.8,0.4V557.9L175,557.9z"/>
	<path class="st12" d="M196,550.1l-21,7.8v38.5l21-7.8V550.1z"/>
	<path class="st11" d="M195.2,549.7l-21,7.8l0.8,0.4l21-7.8L195.2,549.7z"/>
	<path class="st11" d="M191.4,555.1l-12.2,4.5v6.6l12.2-4.5V555.1z M190.5,556.5l-10.5,3.9v4.4l10.5-3.9V556.5z"/>
	<path class="st11" d="M191.4,563.3l-12.2,4.5v6.6l12.2-4.5V563.3z M190.5,564.7l-10.5,3.9v4.4l10.5-3.9V564.7z"/>
	<path class="st11" d="M191.4,573.1l-12.2,4.5v6.6l12.2-4.5V573.1z M190.5,574.5l-10.5,3.9v4.4l10.5-3.9V574.5z"/>
	<path class="st11" d="M191.4,581.9l-12.2,4.5v6.6l12.2-4.5V581.9z M190.5,583.3l-10.5,3.9v4.4l10.5-3.9V583.3z"/>
	<path class="st7" d="M177.1,574.3l-0.8,0.3v4.1l0.8-0.3V574.3z"/>
	<path class="st7" d="M176.9,575.6v0.5l1.6-0.6V575L176.9,575.6z"/>
</g>
<g id="door2">
	<path class="st11" d="M418.1,467.7l-0.8-0.4v38.5l0.8,0.4V467.7z"/>
	<path class="st12" d="M439.1,459.9l-21,7.8v38.5l21-7.8V459.9L439.1,459.9z"/>
	<path class="st11" d="M438.4,459.6l-21,7.8l0.8,0.4l21-7.8L438.4,459.6z"/>
	<path class="st11" d="M434.5,465l-12.2,4.5v6.6l12.2-4.5V465z M433.7,466.4l-10.5,3.9v4.4l10.5-3.9V466.4z"/>
	<path class="st11" d="M434.5,473.2l-12.2,4.5v6.6l12.2-4.5V473.2z M433.7,474.6l-10.5,3.9v4.4l10.5-3.9V474.6z"/>
	<path class="st11" d="M434.5,482.9l-12.2,4.5v6.6l12.2-4.5V482.9z M433.7,484.3l-10.5,3.9v4.4l10.5-3.9V484.3z"/>
	<path class="st11" d="M434.5,491.7l-12.2,4.5v6.6l12.2-4.5V491.7z M433.7,493.1l-10.5,3.9v4.4l10.5-3.9V493.1z"/>
	<path class="st7" d="M420.3,484.2l-0.8,0.3v4.1l0.8-0.3V484.2z"/>
	<path class="st7" d="M420.1,485.4v0.5l1.6-0.6v-0.5L420.1,485.4z"/>
</g>
<g id="elevator">
	<path id="Vector_145" class="st13" d="M1155.2,418.3l34.5,17.2v51.7l-34.5-17.2V418.3z"/>
	<path id="Vector_146" d="M1188.8,486.7l-33.5-16.7v-49.5l33.5,16.7V486.7z"/>
	<path id="Vector_147" d="M1185.3,485l-25.8-12.9v-45.2l25.8,12.9V485z"/>
	<path id="Vector_148" d="M1172,433.1v45.2l0.8,0.5v-45.2L1172,433.1z"/>
	<path id="Vector_149" class="st14" d="M1155.2,418.3l-0.8,0.5v51.7l4.3,2.1l0.8-0.5v-45.2l24.8,12.4v46l4.3,2.1l0.8-0.5v-51.7
		L1155.2,418.3L1155.2,418.3z"/>
	<path id="Vector_150" d="M1188.8,435.9l0.8-0.5V487l-0.8,0.5V435.9z"/>
	<path id="Vector_151" d="M1158.7,426.4l0.8,0.5v45.2l-0.8,0.5V426.4L1158.7,426.4z"/>
	<path id="Vector_152" d="M1154.3,418.7v51.7l4.3,2.1v-46l25.8,12.9v46l4.3,2.1v-51.7L1154.3,418.7L1154.3,418.7z"/>
	<path id="Vector_153" d="M1188,467.7l-2.1-1.1v-5.4l2.1,1.1V467.7z"/>
	<path id="Vector_154" d="M1187.5,464.3l-1.2-0.7l0.7-0.7L1187.5,464.3L1187.5,464.3z"/>
	<path id="Vector_155" d="M1187.5,465.4l-1.2-0.7l0.7,1.2L1187.5,465.4z"/>
	<path id="Vector_156" d="M1174.6,433l-4.3-2.1v-2.1l4.3,2.1V433z"/>
	<path id="Vector_157" d="M1170.7,430.5v-1.7l-0.5-0.2v2.1l4.3,2.1v-0.5L1170.7,430.5L1170.7,430.5z"/>
</g>
<g id="elevator1">
	<path id="Vector_145_12_1" class="st13" d="M1210.8,446.4l34.5,17.2v51.7l-34.5-17.2V446.4L1210.8,446.4z"/>
	<path id="Vector_146_12_1" d="M1244.4,514.7l-33.5-16.7v-49.5l33.5,16.7V514.7z"/>
	<path id="Vector_147_12_1" d="M1240.9,513l-25.8-12.9v-45.2l25.8,12.9V513z"/>
	<path id="Vector_148_12_1" d="M1227.6,461.1v45.2l0.8,0.5v-45.2L1227.6,461.1z"/>
	<path id="Vector_149_12_1" class="st14" d="M1210.8,446.4l-0.8,0.5v51.7l4.3,2.1l0.8-0.5v-45.2l24.8,12.4v46.1l4.3,2.1l0.8-0.5
		v-51.7L1210.8,446.4L1210.8,446.4z"/>
	<path id="Vector_150_12_1" d="M1244.4,463.9l0.8-0.5v51.7l-0.8,0.5V463.9z"/>
	<path id="Vector_151_12_1" d="M1214.3,454.4l0.8,0.5v45.2l-0.8,0.5V454.4L1214.3,454.4z"/>
	<path id="Vector_152_12_1" d="M1209.9,446.7v51.7l4.3,2.1v-46l25.8,12.9v46.1l4.3,2.1v-51.7L1209.9,446.7L1209.9,446.7z"/>
	<path id="Vector_153_12_1" d="M1243.6,495.7l-2.1-1.1v-5.4l2.1,1.1V495.7z"/>
	<path id="Vector_154_12_1" d="M1243.1,492.3l-1.2-0.7l0.7-0.7L1243.1,492.3L1243.1,492.3z"/>
	<path id="Vector_155_12_1" d="M1243.1,493.4l-1.2-0.7l0.7,1.2L1243.1,493.4z"/>
	<path id="Vector_156_12_1" d="M1230.2,461l-4.3-2.1v-2.1l4.3,2.1V461z"/>
	<path id="Vector_157_12_1" d="M1226.3,458.5v-1.7l-0.5-0.2v2.1l4.3,2.1v-0.5L1226.3,458.5L1226.3,458.5z"/>
</g>
<path id="_29" class="st15" d="M1341.5,568.9c-2.8-1.4-6.8-1.9-8.9-1.1l-40.9,15.2c-2.1,0.8-1.6,2.6,1.2,4l59.4,30
	c2.8,1.4,6.8,1.9,8.9,1.1l40.9-15.2c2.1-0.8,1.6-2.6-1.2-4L1341.5,568.9z"/>
<path id="_28" class="st15" d="M1251.1,523.4c-2.8-1.4-6.8-1.9-8.9-1.1l-40.9,15.2c-2.1,0.8-1.6,2.6,1.2,4l59.4,30
	c2.8,1.4,6.8,1.9,8.9,1.1l40.9-15.2c2.1-0.8,1.6-2.6-1.2-4L1251.1,523.4z"/>
<path id="_27" class="st15" d="M1083.2,445.8c-2.8-1.4-6.8-1.9-8.9-1.1l-40.9,15.2c-2.1,0.8-1.6,2.6,1.2,4l59.4,30
	c2.8,1.4,6.8,1.9,8.9,1.1l40.9-15.2c2.1-0.8,1.6-2.6-1.2-4L1083.2,445.8z"/>
<path id="_26" class="st15" d="M999.8,403.7c-2.8-1.4-6.8-1.9-8.9-1.1L950,417.8c-2.1,0.8-1.6,2.6,1.2,4l59.4,30
	c2.8,1.4,6.8,1.9,8.9,1.1l40.9-15.2c2.1-0.8,1.6-2.6-1.2-4L999.8,403.7L999.8,403.7z"/>
<path id="_25" class="st15" d="M916.4,361.7c-2.8-1.4-6.8-1.9-8.9-1.1l-40.9,15.2c-2.1,0.8-1.6,2.6,1.2,4l59.4,30
	c2.8,1.4,6.8,1.9,8.9,1.1l40.9-15.2c2.1-0.8,1.6-2.6-1.2-4L916.4,361.7L916.4,361.7L916.4,361.7z"/>
<path id="_47" class="st15" d="M714.5,436.5c-2.6,1-3.3,2.5-1.4,3.4l35.1,17.7c1.8,0.9,5.5,0.9,8.1-0.1l71.5-26.5
	c2.6-1,3.3-2.5,1.4-3.4l-35.1-17.7c-1.8-0.9-5.5-0.9-8.1,0.1L714.5,436.5L714.5,436.5z"/>
<path id="_30" class="st15" d="M1136.2,631.5c-2.6,1-3.3,2.5-1.4,3.4l35.1,17.7c1.8,0.9,5.4,0.9,8.1-0.1l71.5-26.5
	c2.6-1,3.3-2.5,1.4-3.4l-35.1-17.7c-1.8-0.9-5.4-0.9-8.1,0.1L1136.2,631.5z"/>
<path id="_32" class="st15" d="M982.4,691.9c-2.1,0.8-2.7,2-1.2,2.8l36.3,18.3c1.5,0.8,4.4,0.7,6.6-0.1l40.9-15.2
	c2.1-0.8,2.7-2,1.2-2.8l-36.3-18.3c-1.5-0.8-4.4-0.7-6.6,0.1L982.4,691.9L982.4,691.9z"/>
<path id="_45" class="st15" d="M563.9,491.9c-2.1,0.8-2.7,2-1.2,2.8L599,513c1.5,0.8,4.4,0.7,6.6-0.1l40.9-15.2
	c2.1-0.8,2.7-2,1.2-2.8l-36.3-18.3c-1.5-0.8-4.4-0.7-6.6,0.1L563.9,491.9z"/>
<path id="_33" class="st15" d="M918.6,715.9c-2.1,0.8-2.7,2-1.2,2.8l36.3,18.3c1.5,0.8,4.4,0.7,6.6-0.1l40.9-15.2
	c2.1-0.8,2.7-2,1.2-2.8L966,700.7c-1.5-0.8-4.4-0.7-6.6,0.1L918.6,715.9z"/>
<path id="_44" class="st15" d="M502,515.9c-2.1,0.8-2.7,2-1.2,2.8l36.3,18.3c1.5,0.8,4.4,0.7,6.6-0.1l40.9-15.2
	c2.1-0.8,2.7-2,1.2-2.8l-36.3-18.3c-1.5-0.8-4.4-0.7-6.6,0.1L502,515.9z"/>
<path id="_34" class="st15" d="M854.7,739c-2.1,0.8-2.7,2-1.2,2.8l36.3,18.3c1.5,0.8,4.4,0.7,6.6-0.1l40.9-15.2
	c2.1-0.8,2.7-2,1.2-2.8l-36.3-18.3c-1.5-0.8-4.4-0.7-6.6,0.1L854.7,739z"/>
<path id="_31" class="st15" d="M1043.2,667.7c-2.6,1-3.3,2.5-1.4,3.4l35.1,17.7c1.8,0.9,5.4,0.9,8.1-0.1l71.5-26.5
	c2.6-1,3.3-2.5,1.4-3.4l-35.1-17.7c-1.8-0.9-5.4-0.9-8.1,0.1L1043.2,667.7z"/>
<path id="_46" class="st15" d="M624.7,470.2c-2.6,1-3.3,2.5-1.4,3.4l35.1,17.7c1.8,0.9,5.5,0.9,8.1-0.1l71.5-26.5
	c2.6-1,3.3-2.5,1.4-3.4l-35.1-17.7c-1.8-0.9-5.5-0.9-8.1,0.1L624.7,470.2L624.7,470.2z"/>
<path id="_43" class="st15" d="M441.2,538c-2.1,0.8-2.7,2-1.2,2.8l36.3,18.3c1.5,0.8,4.4,0.7,6.6-0.1l40.9-15.2
	c2.1-0.8,2.7-2,1.2-2.8l-36.3-18.3c-1.5-0.8-4.4-0.7-6.6,0.1L441.2,538z"/>
<path id="_35" class="st15" d="M790.9,762c-2.1,0.8-2.7,2-1.2,2.8l36.3,18.3c1.5,0.8,4.4,0.7,6.6-0.1l40.9-15.2
	c2.1-0.8,2.7-2,1.2-2.8l-36.3-18.3c-1.5-0.8-4.4-0.7-6.6,0.1L790.9,762z"/>
<path id="_42" class="st15" d="M380.4,560c-2.1,0.8-2.7,2-1.2,2.8l36.3,18.3c1.5,0.8,4.4,0.7,6.6-0.1l40.9-15.2
	c2.1-0.8,2.7-2,1.2-2.8l-36.3-18.3c-1.5-0.8-4.4-0.7-6.6,0.1L380.4,560L380.4,560z"/>
<path id="_36" class="st15" d="M728.1,785c-2.1,0.8-2.7,2-1.2,2.8l36.3,18.3c1.5,0.8,4.4,0.7,6.6-0.1l40.9-15.2
	c2.1-0.8,2.7-2,1.2-2.8l-36.3-18.3c-1.5-0.8-4.4-0.7-6.6,0.1L728.1,785z"/>
<path id="_37" class="st15" d="M664.2,808.1c-2.1,0.8-2.7,2-1.2,2.8l36.3,18.3c1.5,0.8,4.4,0.7,6.6-0.1l40.9-15.2
	c2.1-0.8,2.7-2,1.2-2.8l-36.3-18.3c-1.5-0.8-4.4-0.7-6.6,0.1L664.2,808.1z"/>
<path id="_41" class="st15" d="M319.5,582c-2.1,0.8-2.7,2-1.2,2.8l36.3,18.3c1.5,0.8,4.4,0.7,6.6-0.1l40.9-15.2
	c2.1-0.8,2.7-2,1.2-2.8L367,566.8c-1.5-0.8-4.4-0.7-6.6,0.1L319.5,582L319.5,582z"/>
<path id="_40" class="st15" d="M257.7,603.1c-2.1,0.8-2.7,2-1.2,2.8l36.3,18.3c1.5,0.8,4.4,0.7,6.6-0.1l40.9-15.2
	c2.1-0.8,2.7-2,1.2-2.8l-36.3-18.3c-1.5-0.8-4.4-0.7-6.6,0.1L257.7,603.1L257.7,603.1z"/>
<path id="_39" class="st15" d="M266.5,656.6c-2.3,0.8-2.8,2.2-1.2,3l38.7,19.5c1.6,0.8,4.7,0.8,7-0.1l43.6-16.2
	c2.3-0.8,2.8-2.2,1.2-3L317,640.4c-1.6-0.8-4.7-0.8-7,0.1L266.5,656.6L266.5,656.6z"/>
<path id="_38" class="st15" d="M549.1,796.5c-2.2,0.8-2.7,2.1-1.2,2.9l37.3,18.8c1.5,0.8,4.5,0.7,6.8-0.1l42-15.6
	c2.2-0.8,2.7-2.1,1.2-2.9l-37.3-18.8c-1.5-0.8-4.5-0.7-6.8,0.1L549.1,796.5L549.1,796.5L549.1,796.5z"/>
<path class="st10" d="M1502.4,437.8l-172,63.8v56.2l172-63.8V437.8z"/>
<path class="st10" d="M1357.6,641.2l-39.3-19.8v68.4l39.3,19.8V641.2z"/>
<g id="pole">
	<path class="st15" d="M258.5,608.4l-4.7,1.7l3.8,1.9l4.7-1.7L258.5,608.4L258.5,608.4z"/>
	<path class="st16" d="M257.6,612.1l-3.8-1.9v48.9l3.8,1.9V612.1z"/>
	<path class="st7" d="M262.3,610.3l-4.7,1.7V661l4.7-1.7V610.3L262.3,610.3z"/>
</g>
<g id="pole1">
	<path class="st15" d="M587.9,778.2l-4.7,1.7l3.8,1.9l4.7-1.7L587.9,778.2z"/>
	<path class="st16" d="M587,781.9l-3.8-1.9v48.9l3.8,1.9V781.9z"/>
	<path class="st7" d="M591.7,780.1l-4.7,1.7v48.9l4.7-1.7V780.1z"/>
</g>
<path class="st3" d="M644.4,742.2L594.3,717v56.3l50.2,25.3V742.2z"/>
<path class="st17" d="M594.3,717l-56.5,20.9v56.3l56.5-20.9V717z"/>
<g id="stairs">
	<g>
		<path class="st18" d="M457.8,766l-24.9,0.1l0.4,1.2l24.9-0.1L457.8,766z"/>
		<path class="st18" d="M456.6,766.8l-1.7-0.7l1.2,13.8l1.7,0.7L456.6,766.8z"/>
		<path class="st18" d="M449.7,766.8l-1.7-0.7l1.2,13.8l1.7,0.7L449.7,766.8L449.7,766.8z"/>
		<path class="st18" d="M443,766.7l-1.7-0.7l1.2,13.8l1.7,0.7L443,766.7z"/>
		<path class="st18" d="M436.2,767l-1.7-0.7l1.1,13.3l1.7,0.7L436.2,767z"/>
	</g>
	<g>
		<path class="st18" d="M484.5,766.3l-24.9,0.1l0.4,1.2l24.9-0.1L484.5,766.3z"/>
		<path class="st18" d="M483.3,767.2l-1.7-0.7l1.2,13.8l1.7,0.7L483.3,767.2z"/>
		<path class="st18" d="M476.5,767.2l-1.7-0.7l1.2,13.8l1.7,0.7L476.5,767.2z"/>
		<path class="st18" d="M469.8,767.1l-1.7-0.7l1.2,13.8l1.7,0.7L469.8,767.1z"/>
		<path class="st18" d="M463,767.3l-1.7-0.7l1.1,13.3l1.7,0.7L463,767.3z"/>
	</g>
	<g id="steps">
		<g id="steps1">
			<g id="atep">
				<path class="st19" d="M386.9,779.3l-32.2,11.9l0.2,2.9l32.2-11.9L386.9,779.3z"/>
				<path class="st20" d="M380.8,776l-33,12.2l7,3l33-12.2L380.8,776z"/>
				<path class="st21" d="M354.7,791.3l-7-3l0.2,2.9l7,3L354.7,791.3z"/>
			</g>
		</g>
		<g id="steps2">
			<g id="atep1">
				<path class="st19" d="M393.6,779.4l-32.2,11.9l0.2,2.9l32.2-11.9L393.6,779.4z"/>
				<path class="st20" d="M387.5,776.1l-33,12.2l7,3l33-12.2L387.5,776.1z"/>
				<path class="st21" d="M361.4,791.3l-7-3l0.2,2.9l7,3L361.4,791.3z"/>
			</g>
		</g>
		<g id="steps3">
			<g id="atep2">
				<path class="st19" d="M400.3,779.5l-32.2,11.9l0.2,2.9l32.2-11.9L400.3,779.5z"/>
				<path class="st20" d="M394.2,776.2l-33,12.2l7,3l33-12.2L394.2,776.2z"/>
				<path class="st21" d="M368.1,791.5l-7-3l0.2,2.9l7,3L368.1,791.5L368.1,791.5z"/>
			</g>
		</g>
		<g id="steps4">
			<g id="atep3">
				<path class="st19" d="M407,779.6l-32.2,11.9l0.2,2.9l32.2-11.9L407,779.6z"/>
				<path class="st20" d="M400.9,776.3l-33,12.2l7,3l33-12.2L400.9,776.3z"/>
				<path class="st21" d="M374.8,791.5l-7-3l0.2,2.9l7,3L374.8,791.5L374.8,791.5z"/>
			</g>
		</g>
	</g>
	<g id="steps5">
		<g id="steps6">
			<g id="atep4">
				<path class="st19" d="M413.7,779.7l-32.2,11.9l0.2,2.9l32.2-11.9L413.7,779.7z"/>
				<path class="st20" d="M407.6,776.4l-33,12.2l7,3l33-12.2L407.6,776.4z"/>
				<path class="st21" d="M381.5,791.7l-7-3l0.2,2.9l7,3L381.5,791.7L381.5,791.7z"/>
			</g>
		</g>
		<g id="steps7">
			<g id="atep5">
				<path class="st19" d="M420.4,779.8l-32.2,11.9l0.2,2.9l32.2-11.9L420.4,779.8z"/>
				<path class="st20" d="M414.2,776.5l-33,12.2l7,3l33-12.2L414.2,776.5z"/>
				<path class="st21" d="M388.2,791.7l-7-3l0.2,2.9l7,3L388.2,791.7z"/>
			</g>
		</g>
		<g id="steps8">
			<g id="atep6">
				<path class="st19" d="M427.1,780l-32.2,11.9l0.2,2.9l32.2-11.9L427.1,780z"/>
				<path class="st20" d="M421,776.6l-33,12.2l7,3l33-12.2L421,776.6z"/>
				<path class="st21" d="M394.9,791.9l-7-3l0.2,2.9l7,3L394.9,791.9z"/>
			</g>
		</g>
		<g id="steps9">
			<g id="atep7">
				<path class="st19" d="M433.8,780l-32.2,11.9l0.2,2.9l32.2-11.9L433.8,780z"/>
				<path class="st20" d="M427.6,776.7l-33,12.2l7,3l33-12.2L427.6,776.7z"/>
				<path class="st21" d="M401.6,791.9l-7-3l0.2,2.9l7,3L401.6,791.9z"/>
			</g>
		</g>
	</g>
	<g id="steps10">
		<g id="steps11">
			<g id="atep8">
				<path class="st19" d="M440.5,780.2l-32.2,11.9l0.2,2.9l32.2-11.9L440.5,780.2z"/>
				<path class="st20" d="M434.3,776.9l-33,12.2l7,3l33-12.2L434.3,776.9z"/>
				<path class="st21" d="M408.3,792.1l-7-3l0.2,2.9l7,3L408.3,792.1L408.3,792.1z"/>
			</g>
		</g>
		<g id="steps12">
			<g id="atep9">
				<path class="st19" d="M447.1,780.2l-32.2,11.9l0.2,2.9l32.2-11.9L447.1,780.2z"/>
				<path class="st20" d="M441,776.9l-33,12.2l7,3l33-12.2L441,776.9z"/>
				<path class="st21" d="M414.9,792.2l-7-3l0.2,2.9l7,3L414.9,792.2z"/>
			</g>
		</g>
		<g id="steps13">
			<g id="atep10">
				<path class="st19" d="M453.8,780.4l-32.2,11.9l0.2,2.9l32.2-11.9L453.8,780.4z"/>
				<path class="st20" d="M447.7,777.1l-33,12.2l7,3l33-12.2L447.7,777.1L447.7,777.1z"/>
				<path class="st21" d="M421.7,792.3l-7-3l0.2,2.9l7,3L421.7,792.3z"/>
			</g>
		</g>
		<g id="steps14">
			<g id="atep11">
				<path class="st19" d="M460.5,780.5l-32.2,11.9l0.2,2.9l32.2-11.9L460.5,780.5z"/>
				<path class="st20" d="M453.6,777.4l-32.2,11.9l7,3l32.2-11.9L453.6,777.4z"/>
				<path class="st21" d="M428.3,792.4l-7-3l0.2,2.9l7,3L428.3,792.4z"/>
			</g>
		</g>
	</g>
	<g id="steps15">
		<g id="steps16">
			<g id="atep12">
				<path class="st19" d="M467.2,780.6L435,792.5l0.2,2.9l32.2-11.9L467.2,780.6z"/>
				<path class="st20" d="M461.1,777.2l-33,12.2l7,3l33-12.2L461.1,777.2z"/>
				<path class="st21" d="M435,792.5l-7-3l0.2,2.9l7,3L435,792.5z"/>
			</g>
		</g>
		<g id="steps17">
			<g id="atep13">
				<path class="st19" d="M473.9,780.6l-32.2,11.9l0.2,2.9l32.2-11.9L473.9,780.6z"/>
				<path class="st20" d="M467.8,777.3l-33,12.2l7,3l33-12.2L467.8,777.3z"/>
				<path class="st21" d="M441.7,792.5l-7-3l0.2,2.9l7,3L441.7,792.5z"/>
			</g>
		</g>
		<g id="steps18">
			<g id="atep14">
				<path class="st19" d="M480.6,780.8l-32.2,11.9l0.2,2.9l32.2-11.9L480.6,780.8z"/>
				<path class="st20" d="M474.5,777.5l-33,12.2l7,3l33-12.2L474.5,777.5z"/>
				<path class="st21" d="M448.4,792.7l-7-3l0.2,2.9l7,3L448.4,792.7z"/>
			</g>
		</g>
		<g id="steps19">
			<g id="atep15">
				<path class="st19" d="M487.3,780.8l-32.2,11.9l0.2,2.9l32.2-11.9L487.3,780.8z"/>
				<path class="st20" d="M480.3,777.8l-32.2,11.9l7,3l32.2-11.9L480.3,777.8z"/>
				<path class="st21" d="M455.1,792.8l-7-3l0.2,2.9l7,3L455.1,792.8z"/>
			</g>
		</g>
	</g>
	<g>
		<path class="st18" d="M372.3,777.6l-24.9,0.1l0.4,1.2l24.9-0.1L372.3,777.6z"/>
		<path class="st18" d="M371.1,778.4l-1.7-0.7l1.2,13.8l1.7,0.7L371.1,778.4z"/>
		<path class="st18" d="M364.2,778.4l-1.7-0.7l1.2,13.8l1.7,0.7L364.2,778.4z"/>
		<path class="st18" d="M357.5,778.4l-1.7-0.7l1.2,13.8l1.7,0.7L357.5,778.4z"/>
		<path class="st18" d="M350.7,778.6l-1.7-0.7l1.1,13.3l1.7,0.7L350.7,778.6z"/>
	</g>
	<g>
		<path class="st18" d="M399.1,778l-24.9,0.1l0.4,1.2l24.9-0.1L399.1,778z"/>
		<path class="st18" d="M397.9,778.8l-1.7-0.7l1.2,13.8l1.7,0.7L397.9,778.8z"/>
		<path class="st18" d="M391,778.8l-1.7-0.7l1.2,13.8l1.7,0.7L391,778.8L391,778.8z"/>
		<path class="st18" d="M384.3,778.8l-1.7-0.7l1.2,13.8l1.7,0.7L384.3,778.8z"/>
		<path class="st18" d="M377.5,779l-1.7-0.7l1.1,13.3l1.7,0.7L377.5,779z"/>
	</g>
	<g>
		<path class="st18" d="M425.8,778.4l-24.9,0.1l0.4,1.2l24.9-0.1L425.8,778.4z"/>
		<path class="st18" d="M424.7,779.3l-1.7-0.7l1.2,13.8l1.7,0.7L424.7,779.3z"/>
		<path class="st18" d="M417.8,779.2l-1.7-0.7l1.2,13.8l1.7,0.7L417.8,779.2L417.8,779.2z"/>
		<path class="st18" d="M411.1,779.2l-1.7-0.7l1.2,13.8l1.7,0.7L411.1,779.2z"/>
		<path class="st18" d="M404.3,779.5l-1.7-0.7l1.1,13.3l1.7,0.7L404.3,779.5z"/>
	</g>
	<g>
		<path class="st18" d="M452.6,778.8l-24.9,0.1l0.4,1.2l24.9-0.1L452.6,778.8z"/>
		<path class="st18" d="M451.4,779.7l-1.7-0.7l1.2,13.8l1.7,0.7L451.4,779.7z"/>
		<path class="st18" d="M444.5,779.6l-1.7-0.7l1.2,13.8l1.7,0.7L444.5,779.6z"/>
		<path class="st18" d="M437.8,779.6l-1.7-0.7l1.2,13.8l1.7,0.7L437.8,779.6z"/>
		<path class="st18" d="M431,779.8l-1.7-0.7l1.1,13.3l1.7,0.7L431,779.8z"/>
	</g>
	<g>
		<path class="st18" d="M404.2,765.1l-24.9,0.1l0.4,1.2l24.9-0.1L404.2,765.1z"/>
		<path class="st18" d="M403,766l-1.7-0.7l1.2,13.8l1.7,0.7L403,766L403,766z"/>
		<path class="st18" d="M396.2,765.9l-1.7-0.7l1.2,13.8l1.7,0.7L396.2,765.9z"/>
		<path class="st18" d="M389.5,765.9l-1.7-0.7L389,779l1.7,0.7L389.5,765.9L389.5,765.9z"/>
		<path class="st18" d="M382.7,766.1l-1.7-0.7l1.1,13.3l1.7,0.7L382.7,766.1z"/>
	</g>
	<g>
		<path class="st18" d="M431,765.5l-24.9,0.1l0.4,1.2l24.9-0.1L431,765.5z"/>
		<path class="st18" d="M429.8,766.4l-1.7-0.7l1.2,13.8l1.7,0.7L429.8,766.4z"/>
		<path class="st18" d="M422.9,766.3l-1.7-0.7l1.2,13.8l1.7,0.7L422.9,766.3z"/>
		<path class="st18" d="M416.2,766.3l-1.7-0.7l1.2,13.8l1.7,0.7L416.2,766.3z"/>
		<path class="st18" d="M409.4,766.5l-1.7-0.7l1.1,13.3l1.7,0.7L409.4,766.5z"/>
	</g>
</g>
<path class="st22" d="M434.4,748.3l-63.8,23.6v4.1l63.8-23.6V748.3z"/>
<path class="st4" d="M360.8,766.9l-42.7,15.8l69.5,35l42.7-15.8L360.8,766.9L360.8,766.9z"/>
<path class="st4" d="M489.3,780.1L448,795.4l9.3,4.7l41.3-15.3L489.3,780.1L489.3,780.1z"/>
<path class="st23" d="M1195.9,595.2l-176.1-88.8l-48.6,18l-135.5-68.3L374.9,626.9"/>
<path class="st4" d="M1197.4,593.6l-12.5,4.6l7.6,3.8l12.5-4.6L1197.4,593.6z"/>
<path class="st2" d="M690.7,731.3l-18.8,7v48.1l18.8-7V731.3z"/>
<path class="st2" d="M737.6,714l-18.8,7V769l18.8-7V714z"/>
<path class="st2" d="M711.8,723.5l-18.8,7v48.1l18.8-7V723.5z"/>
<path class="st2" d="M758.8,706.1l-18.8,7v48.1l18.8-7V706.1z"/>
<path class="st10" d="M1142,614.1v-56.3L644.4,742.2v56.3L1142,614.1L1142,614.1z M690.7,731.3l-18.8,7v48.1l18.8-7V731.3z
	 M711.8,723.5l-18.8,7v48.1l18.8-7V723.5z M737.6,714l-18.8,7V769l18.8-7V714z M758.8,706.1l-18.8,7v48.1l18.8-7V706.1z M785,696.4
	l-18.8,7v48.1l18.8-7V696.4z M806.2,688.5l-18.8,7v48.1l18.8-7V688.5L806.2,688.5z M831.9,679l-18.8,7v48.1l18.8-7V679L831.9,679z
	 M853.1,671.1l-18.8,7v48.1l18.8-7V671.1L853.1,671.1z M879.4,661.4l-18.8,7v48.1l18.8-7V661.4L879.4,661.4z M900.5,653.6l-18.8,7
	v48.1l18.8-7V653.6L900.5,653.6z M926.3,644l-18.8,7v48.1l18.8-7V644L926.3,644z M947.4,636.2l-18.8,7v48.1l18.8-7V636.2z
	 M973,626.7l-18.8,7v48.1l18.8-7V626.7z M994.1,618.9l-18.8,7v48.1l18.8-7V618.9L994.1,618.9z M1019.9,609.3l-18.8,7v48.1l18.8-7
	V609.3z M1041,601.5l-18.8,7v48.1l18.8-7V601.5L1041,601.5z M1067.4,591.7l-18.8,7v48.1l18.8-7V591.7L1067.4,591.7z M1088.6,583.8
	l-18.8,7v48.1l18.8-7V583.8z M1114.4,574.3l-18.8,7v48.1l18.8-7V574.3z M1135.5,566.4l-18.8,7v48.1l18.8-7V566.4L1135.5,566.4z"/>
<path class="st7" d="M761.2,703.2l-91.4,33.9v52.1l91.4-33.9V703.2z M690.7,731.3l-18.8,7v48.1l18.8-7V731.3z M711.9,723.5l-18.8,7
	v48.1l18.8-7V723.5z M737.6,714l-18.8,7V769l18.8-7V714z M758.8,706.1l-18.8,7v48.1l18.8-7V706.1z"/>
<path class="st2" d="M879.4,661.4l-18.8,7v48.1l18.8-7V661.4L879.4,661.4z"/>
<path class="st2" d="M926.3,644l-18.8,7v48.1l18.8-7V644L926.3,644z"/>
<path class="st2" d="M900.5,653.6l-18.8,7v48.1l18.8-7V653.6L900.5,653.6z"/>
<path class="st2" d="M947.4,636.2l-18.8,7v48.1l18.8-7V636.2L947.4,636.2z"/>
<path class="st7" d="M949.9,633.3l-91.4,33.9v52.1l91.4-33.9V633.3z M879.4,661.4l-18.8,7v48.1l18.8-7V661.4L879.4,661.4z
	 M900.5,653.6l-18.8,7v48.1l18.8-7V653.6L900.5,653.6z M926.3,644l-18.8,7v48.1l18.8-7V644L926.3,644z M947.4,636.2l-18.8,7v48.1
	l18.8-7V636.2L947.4,636.2z"/>
<path class="st2" d="M973,626.7l-18.8,7v48.1l18.8-7V626.7z"/>
<path class="st2" d="M1019.9,609.3l-18.8,7v48.1l18.8-7V609.3z"/>
<path class="st2" d="M994.1,618.9l-18.8,7v48.1l18.8-7V618.9L994.1,618.9z"/>
<path class="st2" d="M1041,601.5l-18.8,7v48.1l18.8-7V601.5L1041,601.5z"/>
<path class="st7" d="M1043.5,598.6l-91.4,33.9v52.1l91.4-33.9V598.6z M973,626.7l-18.8,7v48.1l18.8-7V626.7z M994.1,618.9l-18.8,7
	v48.1l18.8-7V618.9L994.1,618.9z M1019.9,609.3l-18.8,7v48.1l18.8-7V609.3z M1041,601.5l-18.8,7v48.1l18.8-7V601.5L1041,601.5z"/>
<path class="st2" d="M1067.4,591.7l-18.8,7v48.1l18.8-7V591.7L1067.4,591.7z"/>
<path class="st2" d="M1114.4,574.3l-18.8,7v48.1l18.8-7V574.3z"/>
<path class="st2" d="M1088.6,583.8l-18.8,7v48.1l18.8-7V583.8L1088.6,583.8z"/>
<path class="st2" d="M1135.5,566.5l-18.8,7v48.1l18.8-7V566.5L1135.5,566.5z"/>
<path class="st7" d="M1138,563.5l-91.4,33.9v52.1l91.4-33.9V563.5L1138,563.5z M1067.4,591.7l-18.8,7v48.1l18.8-7V591.7z
	 M1088.6,583.8l-18.8,7v48.1l18.8-7V583.8L1088.6,583.8z M1114.3,574.3l-18.8,7v48.1l18.8-7V574.3L1114.3,574.3z M1135.5,566.4
	l-18.8,7v48.1l18.8-7V566.4z"/>
<path class="st2" d="M785,696.4l-18.8,7v48.1l18.8-7V696.4z"/>
<path class="st2" d="M831.9,679l-18.8,7v48.1l18.8-7V679L831.9,679z"/>
<path class="st2" d="M806.2,688.5l-18.8,7v48.1l18.8-7V688.5L806.2,688.5z"/>
<path class="st2" d="M853.1,671.1l-18.8,7v48.1l18.8-7V671.1L853.1,671.1z"/>
<path class="st7" d="M855.5,668.2l-91.4,33.9v52.1l91.4-33.9V668.2z M785,696.4l-18.8,7v48.1l18.8-7V696.4z M806.2,688.5l-18.8,7
	v48.1l18.8-7V688.5L806.2,688.5z M831.9,679l-18.8,7v48.1l18.8-7V679L831.9,679z M853.1,671.1l-18.8,7v48.1l18.8-7V671.1
	L853.1,671.1z"/>
<path class="st2" d="M453.7,699.3l-17.9-9v50.5l17.9,9V699.3L453.7,699.3z"/>
<path class="st2" d="M473.8,709.5l-17.9-9v50.5l17.9,9V709.5z"/>
<path class="st10" d="M835.6,431.9L324.8,621.3v16.1L835.6,448V431.9L835.6,431.9z"/>
<path class="st3" d="M374.9,606.3l-50.1-25.3v56.3l50.1,25.3V606.3L374.9,606.3z"/>
<path class="st17" d="M374.9,606.3l-56.5,20.9v56.3l56.5-20.9V606.3L374.9,606.3z"/>
<path class="st2" d="M356.4,650.2l-17.9-9v50.5l17.9,9V650.2L356.4,650.2z"/>
<path class="st2" d="M401,672.8l-17.9-9v50.5l17.9,9V672.8L401,672.8z"/>
<path class="st2" d="M376.5,660.4l-17.9-9v50.5l17.9,9V660.4L376.5,660.4z"/>
<path class="st23" d="M657.7,249.1l132.5,66.8L18.6,602v51.6l600.9,295.3l698.9-259v-68.4l39.3,19.8"/>
<path class="st23" d="M1502.4,494.1v-56.2l-172,63.8L751.1,209.5v56.2"/>
<path class="st23" d="M1098.2,574L644.4,742.2L594.3,717l-56.5,20.9L318.4,627.3l56.5-20.9L324.7,581"/>
<g id="starirs">
	<g id="i267">
		<g id="Group_25">
			<g id="Group_26">
				<path id="Vector_73" class="st24" d="M850.9,480.1v2.9h-6v21.6H842v-21.2h-8.9v21.2h-2.9v-21.2H821v21.2H818v-21.2h-8.9v21.2
					h-2.9v-21.2H803v-2.9h48.3v-0.3L850.9,480.1L850.9,480.1z"/>
				<path id="Vector_74" class="st13" d="M814.6,498.5l6.2,2.9L814.6,498.5l6.2,2.9l6.2-2.9l6.2,2.9l6.2-2.9l6.2,2.9l6.2-2.9
					l48.3,24.1v6.2l-12.3,6.2l-6.2-2.9l-6.2,2.9L869,532l-6.2,2.9l-6.2-2.9l-6.2,2.9l-47.8-24.5v-5.8L814.6,498.5L814.6,498.5z"/>
				<path id="Vector_75" d="M802.8,504.6v6.2l48.3,24.1v-6.2L802.8,504.6L802.8,504.6z"/>
				<path id="Vector_76" d="M863.1,522.6l-12.3,6.2v6.2l12.3-6.2V522.6z M874.9,522.6l-12.3,6.2v6.2l12.3-6.2V522.6z M887.2,522.6
					l-12.3,6.2v6.2l12.3-6.2V522.6z M899.4,522.6l-12.3,6.2v6.2l12.3-6.2V522.6z"/>
				<path id="Vector_77" d="M887.2,528.8v6.2L881,532L887.2,528.8z"/>
				<path id="Vector_78" d="M874.9,528.8v6.2l-6.2-2.9L874.9,528.8z"/>
				<path id="Vector_79" d="M863.1,528.8v6.2l-6.2-2.9L863.1,528.8z"/>
				<path id="Vector_80" class="st24" d="M899.4,503.9v3.6h-6.2v21.2l-2.9,1.4v-22.8h-8.9v21.2l-2.9,1.4v-22.8h-8.9v21.2l-2.9,1.4
					V507h-8.9v21.2l-2.9,1.4v-22.8H852v-2.9L899.4,503.9L899.4,503.9z"/>
			</g>
		</g>
	</g>
	<g id="i68">
		<g id="Group_137">
			<g id="Group_138">
				<path id="Vector_351" class="st24" d="M850.9,504.6v2.9l6.2-6.2v21.2h2.9v-24.1l8.9-8.9v21.2h2.9v-24.1l8.9-8.9V499h2.9v-24.1
					l8.9-8.9v21.2h2.9v-24.3l2.9-2.9v-2.7L850.9,504.6L850.9,504.6L850.9,504.6z"/>
				<path id="Vector_352" class="st13" d="M899.4,552.9l12.3-6.2v-6.2l12.3-6.2v-6.2l12.3-6.2V516l12.3-6.2v-5.3l-48.3-24.1
					l-12.3,6.2v6.2l-12.3,6.2v5.8l-12.3,6.2v6.2l-12.3,6.2v6.2L899.4,552.9L899.4,552.9L899.4,552.9z"/>
				<path id="Vector_353" d="M850.9,522.6l48.3,24.2v6.2l-48.3-24.2V522.6z"/>
				<path id="Vector_354" d="M863.1,510.3l48.3,24.1v6.2l-48.3-24.2V510.3L863.1,510.3z"/>
				<path id="Vector_355" d="M874.9,498.5l48.3,24.1v6.2l-48.3-24.1V498.5L874.9,498.5z"/>
				<path id="Vector_356" d="M887.2,486.1l48.3,24.1v6.2l-48.3-24.1V486.1z"/>
				<path id="Vector_357" d="M935.5,510.3v6.2l12.3-6.2v-5.8L935.5,510.3z M923.5,522.3v6.2l12.3-6.2v-6.2L923.5,522.3z
					 M899.4,552.9l12.3-6.2v-6.2l-12.3,6.2V552.9z M911.3,540.6l12.3-6.2v-6.2l-12.3,6.2V540.6z"/>
				<path id="Vector_358" class="st24" d="M899.4,528.8v2.9l6.2-6.2v21.2l2.9-1.4v-22.8l8.9-8.9v21.2l2.9-1.4v-22.8l8.9-8.9v20.9
					l2.9-1.4v-22.8l8.9-8.9v21.2l2.9-1.4v-22.8l2.9-2.9V481L899.4,528.8L899.4,528.8L899.4,528.8z"/>
			</g>
		</g>
	</g>
	<g id="i264">
		<g id="Group_139">
			<g id="Group_140">
				<path id="Vector_359" class="st24" d="M754.2,504.6v2.9l6.2-2.9v24.2h2.9v-25.5l8.9-4.8v24.2h2.9v-25.5l8.9-4.8v24.2h2.9v-25.5
					l8.9-4.8v24.1h2.9v-25.5l2.9-1.4v-2.9L754.2,504.6L754.2,504.6L754.2,504.6z"/>
				<path id="Vector_360" class="st13" d="M802.8,558.9l-48.3-24.2v-6.2l48.3-24.1l48.3,24.1v6.2L802.8,558.9z"/>
				<path id="Vector_361" d="M850.9,528.8l-48.3,24.2v6.2l48.3-24.2V528.8z"/>
				<path id="Vector_362" d="M802.8,552.9v6.2l-48.3-24.2v-6.2L802.8,552.9z"/>
				<path id="Vector_363" class="st24" d="M802.8,528.8v2.9l-6.2-2.9v24.2l-2.9-1.4v-24.2l-8.9-4.8v24.2l-2.9-1.4v-24.2l-8.9-4.8
					v24.2l-2.9-1.4v-24.2l-8.9-4.8v24.1l-2.9-1.4v-24.1l-2.9-1.4v-2.9L802.8,528.8L802.8,528.8L802.8,528.8z"/>
			</g>
		</g>
	</g>
	<g id="i266">
		<g id="Group_141">
			<g id="Group_142">
				<path id="Vector_364" class="st13" d="M850.9,583l48.3-24.2v-6.2l-48.3-24.2l-48.3,24.2v6.2L850.9,583z"/>
				<path id="Vector_365" d="M802.8,552.9l48.3,24.2v6.2l-48.3-24.2V552.9z"/>
				<path id="Vector_366" d="M850.9,577.1v6.2l48.3-24.2v-6.2L850.9,577.1z"/>
				<path id="Vector_367" class="st24" d="M850.9,552.9l-48.3-24.2v2.9l2.9,1.4v24.2l2.9,1.4v-24.2l8.9,4.8v24.2l2.9,1.4v-24.2
					l8.9,4.8v24.2l2.9,1.4v-24.2l8.9,4.8v24.2l2.9,1.4v-24.2l6.2,2.9l6.2-2.9V577l2.9-1.4v-24.2l8.9-4.8v24.2l2.9-1.4v-24.2l8.9-4.8
					v24.2l2.9-1.4v-24.2l8.9-4.8v24.2l2.9-1.4V533l2.9-1.4v-2.9L850.9,552.9L850.9,552.9L850.9,552.9z"/>
			</g>
		</g>
	</g>
</g>
<path class="st10" d="M537.8,737.9L318.4,627.3v56.3l219.4,110.6V737.9z M518.5,732l-17.9-9v50.5l17.9,9V732z M498.3,721.8l-17.9-9
	v50.5l17.9,9V721.8z M473.8,709.5l-17.9-9v50.5l17.9,9V709.5z M453.7,699.3l-17.9-9v50.5l17.9,9V699.3L453.7,699.3z M421.2,682.9
	l-17.9-9v50.5l17.9,9V682.9L421.2,682.9z M401.1,672.8l-17.9-9v50.5l17.9,9V672.8L401.1,672.8z M376.5,660.4l-17.9-9v50.5l17.9,9
	V660.4L376.5,660.4z M356.4,650.2l-17.9-9v50.5l17.9,9V650.2L356.4,650.2z"/>
<path class="st7" d="M423.5,682l-87.1-43.9v54.7l87.1,43.9V682L423.5,682z M421.2,682.9l-17.9-9v50.5l17.9,9V682.9L421.2,682.9z
	 M401,672.8l-17.9-9v50.5l17.9,9V672.8L401,672.8z M376.5,660.4l-17.9-9v50.5l17.9,9V660.4L376.5,660.4z M356.4,650.2l-17.9-9v50.5
	l17.9,9V650.2L356.4,650.2z"/>
<path class="st7" d="M520.8,731.1l-87.1-43.9v54.7l87.1,43.9V731.1z M518.5,732l-17.9-9v50.5l17.9,9V732z M498.3,721.8l-17.9-9v50.5
	l17.9,9V721.8z M473.8,709.5l-17.9-9v50.5l17.9,9V709.5z M453.7,699.3l-17.9-9v50.5l17.9,9V699.3L453.7,699.3z"/>
<g id="fence2">
	<path class="st7" d="M1151.3,584.2l-3.4,1.3v26.5l3.4-1.3V584.2z"/>
	<path class="st7" d="M1161.3,580.5l-3.4,1.3v26.5l3.4-1.3V580.5z"/>
	<path class="st7" d="M1171.1,576.9l-3.4,1.3v26.5l3.4-1.3V576.9z"/>
	<path class="st7" d="M1180.9,573.2l-3.4,1.3V601l3.4-1.3V573.2z"/>
	<path class="st7" d="M1190.7,569.6l-3.4,1.3v26.5l3.4-1.3V569.6z"/>
	<path class="st8" d="M1146.5,586.1l-7.1-3.6v1.7l7.1,3.6V586.1z"/>
	<path class="st5" d="M1198.2,566.9l-51.7,19.2v1.7l51.7-19.2V566.9z"/>
	<path class="st9" d="M1191.1,563.3l-51.7,19.2l7.1,3.6l51.7-19.2L1191.1,563.3z"/>
</g>
<path class="st4" d="M396.7,729.3l-106.4,39.4l37.7,19l106.4-39.4L396.7,729.3L396.7,729.3z"/>
</svg>
